<svg width="32" height="32" viewBox="0 0 32 32" fill="none" xmlns="http://www.w3.org/2000/svg">
<path d="M13.0439 10.1083L1.2194 18.0548C-0.406466 19.1474 -0.406466 20.9354 1.2194 22.028L13.0439 29.9745C14.6697 31.0671 17.3303 31.0671 18.9561 29.9745L30.7806 22.028C32.4065 20.9354 32.4065 19.1474 30.7806 18.0548L18.9561 10.1083C17.3303 9.01572 14.6697 9.01572 13.0439 10.1083Z" fill="#2EC5CE"/>
<path d="M13.0439 6.06892L1.2194 14.0154C-0.406466 15.108 -0.406466 16.896 1.2194 17.9886L13.0439 25.935C14.6697 27.0277 17.3303 27.0277 18.9561 25.935L30.7806 17.9886C32.4065 16.896 32.4065 15.108 30.7806 14.0154L18.9561 6.06892C17.3303 4.97629 14.6697 4.97629 13.0439 6.06892Z" fill="#D6B1FF"/>
<path d="M13.0439 2.02949L1.2194 9.97595C-0.406466 11.0686 -0.406466 12.8565 1.2194 13.9492L13.0439 21.8956C14.6697 22.9882 17.3303 22.9882 18.9561 21.8956L30.7806 13.9492C32.4065 12.8565 32.4065 11.0686 30.7806 9.97595L18.9561 2.02949C17.3303 0.936865 14.6697 0.936865 13.0439 2.02949Z" fill="#8C30F5"/>
<path d="M17.7187 16.7865L8.52954 10.6111L12.1276 8.1931C13.7004 7.1361 15.6819 7.03699 17.0574 7.96135C18.0138 8.60406 18.2036 9.67315 17.4776 10.3749L17.5286 10.4092C18.936 9.67722 20.6172 9.72882 21.8396 10.5504C23.4571 11.6373 23.2597 13.0628 21.3049 14.3765L17.7187 16.7865ZM13.6367 12.5027L15.4706 11.2702C16.827 10.3587 17.0244 9.49842 16.0297 8.83001C15.1191 8.21804 13.992 8.29927 12.8771 9.04851L10.687 10.5204L13.6367 12.5027ZM20.1193 13.8123C21.5011 12.8836 21.6666 12.0191 20.6041 11.3051C19.5417 10.591 18.2479 10.7317 16.7835 11.7158L14.6246 13.1666L17.8532 15.3363L20.1193 13.8123Z" fill="white"/>
</svg>
