<svg width="32" height="32" viewBox="0 0 32 32" fill="none" xmlns="http://www.w3.org/2000/svg">
<path d="M4.44198 18.9937C5.14488 21.4178 6.60479 23.5535 8.6083 25.0886C10.6547 26.6603 13.1648 27.5084 15.7451 27.4999C22.2268 27.4999 27.5 22.2322 27.5 15.7572C27.5086 13.1662 26.6512 10.6467 25.0641 8.5988C23.5117 6.59009 21.3545 5.13377 18.9111 4.44486C18.7204 4.39289 18.5418 4.30372 18.3856 4.18249C18.2294 4.06125 18.0988 3.91033 18.0011 3.73842C17.9035 3.56651 17.8408 3.37699 17.8166 3.18076C17.7925 2.98453 17.8074 2.78547 17.8605 2.59502C17.9135 2.40457 18.0037 2.22648 18.1258 2.07101C18.248 1.91554 18.3996 1.78574 18.5721 1.68909C18.7446 1.59244 18.9345 1.53083 19.1308 1.50782C19.3272 1.4848 19.5261 1.50083 19.7163 1.55499C22.7832 2.41899 25.491 4.24625 27.4399 6.76699C29.1191 8.94995 30.1532 11.5596 30.4252 14.3002C30.6971 17.0408 30.1961 19.8027 28.9787 22.2731C27.7614 24.7436 25.8765 26.8236 23.5375 28.2776C21.1986 29.7317 18.4992 30.5015 15.7451 30.4999C12.506 30.5103 9.35497 29.4454 6.78623 27.4722C4.27158 25.5446 2.43954 22.8631 1.55798 19.8198L4.44198 18.9937Z" fill="#8C30F5"/>
<path d="M12.5 4.5C13.3284 4.5 14 3.82843 14 3C14 2.17157 13.3284 1.5 12.5 1.5C11.6716 1.5 11 2.17157 11 3C11 3.82843 11.6716 4.5 12.5 4.5Z" fill="#D6B1FF"/>
<path d="M3.5 13.5C4.32843 13.5 5 12.8284 5 12C5 11.1716 4.32843 10.5 3.5 10.5C2.67157 10.5 2 11.1716 2 12C2 12.8284 2.67157 13.5 3.5 13.5Z" fill="#2EC5CE"/>
<path d="M6.8125 7.8125C7.64093 7.8125 8.3125 7.14093 8.3125 6.3125C8.3125 5.48407 7.64093 4.8125 6.8125 4.8125C5.98407 4.8125 5.3125 5.48407 5.3125 6.3125C5.3125 7.14093 5.98407 7.8125 6.8125 7.8125Z" fill="#D6B1FF"/>
<path d="M3 30C2.60218 30 2.22064 29.842 1.93934 29.5607C1.65804 29.2794 1.5 28.8979 1.5 28.5V19.5C1.5 19.2754 1.55044 19.0537 1.6476 18.8511C1.74477 18.6486 1.88618 18.4705 2.06139 18.33C2.2366 18.1894 2.44114 18.09 2.65991 18.0391C2.87869 17.9881 3.1061 17.987 3.32538 18.0357L12.3254 20.0357C12.7137 20.122 13.0519 20.359 13.2655 20.6947C13.4791 21.0303 13.5506 21.437 13.4643 21.8254C13.378 22.2138 13.141 22.5519 12.8054 22.7655C12.4697 22.9791 12.063 23.0506 11.6746 22.9643L4.5 21.37V28.5C4.5 28.8979 4.34196 29.2794 4.06066 29.5607C3.77936 29.842 3.39782 30 3 30Z" fill="#8C30F5"/>
</svg>
