<svg width="32" height="32" viewBox="0 0 32 32" fill="none" xmlns="http://www.w3.org/2000/svg">
<path d="M16 31.9999C24.8365 31.9999 31.9999 24.8365 31.9999 16C31.9999 7.16343 24.8365 0 16 0C7.16343 0 0 7.16343 0 16C0 24.8365 7.16343 31.9999 16 31.9999Z" fill="#2EC5CE"/>
<path d="M15.9999 29.7215C23.5781 29.7215 29.7215 23.5781 29.7215 15.9999C29.7215 8.42169 23.5781 2.27832 15.9999 2.27832C8.42169 2.27832 2.27832 8.42169 2.27832 15.9999C2.27832 23.5781 8.42169 29.7215 15.9999 29.7215Z" fill="white"/>
<path d="M16.5423 2.28833V4.04723C16.5423 4.3477 16.3018 4.58809 16.0014 4.58809C15.7009 4.58809 15.4565 4.3477 15.4565 4.04723V2.28833C15.6368 2.28034 15.8171 2.27631 16.0014 2.27631C16.1817 2.27631 16.362 2.28027 16.5423 2.28833Z" fill="#D6B1FF"/>
<path d="M6.68777 5.92108L7.9315 7.16481C8.14395 7.37726 8.14395 7.71729 7.93143 7.92973C7.71898 8.14218 7.37622 8.14498 7.16371 7.93254L5.92004 6.6888C6.04181 6.55569 6.16645 6.42538 6.29677 6.29507C6.42427 6.16756 6.55459 6.04285 6.68777 5.92108Z" fill="#D6B1FF"/>
<path d="M2.28839 15.4579H4.04729C4.34775 15.4579 4.58815 15.6984 4.58815 15.9989C4.58815 16.2993 4.34775 16.5437 4.04729 16.5437H2.28839C2.2804 16.3634 2.27637 16.1832 2.27637 15.9989C2.2763 15.8185 2.28033 15.6382 2.28839 15.4579Z" fill="#D6B1FF"/>
<path d="M5.92126 25.3125L7.165 24.0688C7.37745 23.8563 7.71748 23.8563 7.92992 24.0688C8.14237 24.2813 8.14518 24.624 7.93273 24.8365L6.68899 26.0803C6.55588 25.9585 6.42557 25.8339 6.29525 25.7035C6.16774 25.576 6.04303 25.4456 5.92126 25.3125Z" fill="#D6B1FF"/>
<path d="M15.4579 29.7118V27.9529C15.4579 27.6524 15.6984 27.412 15.9988 27.412C16.2993 27.412 16.5436 27.6524 16.5436 27.9529V29.7118C16.3634 29.7198 16.1831 29.7238 15.9988 29.7238C15.8185 29.7238 15.6382 29.7198 15.4579 29.7118Z" fill="#D6B1FF"/>
<path d="M25.3126 26.079L24.0689 24.8353C23.8564 24.6228 23.8564 24.2828 24.0689 24.0704C24.2814 23.8579 24.6242 23.8551 24.8367 24.0676L26.0804 25.3113C25.9586 25.4444 25.834 25.5747 25.7037 25.705C25.576 25.8325 25.4457 25.9572 25.3126 26.079Z" fill="#D6B1FF"/>
<path d="M29.7117 16.5421H27.9528C27.6524 16.5421 27.412 16.3016 27.412 16.0012C27.412 15.7007 27.6524 15.4564 27.9528 15.4564H29.7117C29.7197 15.6366 29.7238 15.8169 29.7238 16.0012C29.7238 16.1815 29.7197 16.3618 29.7117 16.5421Z" fill="#D6B1FF"/>
<path d="M26.0791 6.68766L24.8353 7.93139C24.6229 8.14384 24.2829 8.14384 24.0704 7.93132C23.858 7.71888 23.8552 7.37611 24.0676 7.1636L25.3113 5.91986C25.4445 6.04163 25.5748 6.16627 25.7051 6.29658C25.8326 6.42416 25.9572 6.55454 26.0791 6.68766Z" fill="#D6B1FF"/>
<path d="M21.1931 16.8021H15.9752C15.5327 16.8021 15.174 16.4432 15.174 16.0008V8.5163C15.174 8.07378 15.5328 7.71503 15.9752 7.71503C16.4178 7.71503 16.7765 8.07384 16.7765 8.5163V15.1994H21.1931C21.6356 15.1994 21.9944 15.5583 21.9944 16.0007C21.9944 16.4433 21.6356 16.8021 21.1931 16.8021Z" fill="#8C30F5"/>
<path d="M16 17.8696C17.0326 17.8696 17.8697 17.0325 17.8697 15.9999C17.8697 14.9673 17.0326 14.1302 16 14.1302C14.9674 14.1302 14.1304 14.9673 14.1304 15.9999C14.1304 17.0325 14.9674 17.8696 16 17.8696Z" fill="#8C30F5"/>
</svg>
