<svg width="32" height="32" viewBox="0 0 32 32" fill="none" xmlns="http://www.w3.org/2000/svg">
<path d="M27.7 9H4.3C3.95522 9 3.62456 9.12292 3.38076 9.34171C3.13696 9.5605 3 9.85725 3 10.1667V21.8333C3 22.1428 3.13696 22.4395 3.38076 22.6583C3.62456 22.8771 3.95522 23 4.3 23H27.7C28.0448 23 28.3754 22.8771 28.6192 22.6583C28.863 22.4395 29 22.1428 29 21.8333V10.1667C29 9.85725 28.863 9.5605 28.6192 9.34171C28.3754 9.12292 28.0448 9 27.7 9Z" fill="#8C30F5"/>
<rect x="3" y="26" width="26" height="5" rx="1" fill="#D6B1FF"/>
<rect x="3" y="1" width="26" height="5" rx="1" fill="#2EC5CE"/>
<rect x="3" y="9" width="26" height="14" rx="1" fill="#8C30F5"/>
</svg>
