<svg width="32" height="32" viewBox="0 0 32 32" fill="none" xmlns="http://www.w3.org/2000/svg">
<rect x="1" y="1" width="4" height="4" stroke="#2EC5CE" stroke-width="2"/>
<rect x="1" y="27" width="4" height="4" stroke="#2EC5CE" stroke-width="2"/>
<rect x="27" y="1" width="4" height="4" stroke="#2EC5CE" stroke-width="2"/>
<rect x="27" y="27" width="4" height="4" stroke="#2EC5CE" stroke-width="2"/>
<path fill-rule="evenodd" clip-rule="evenodd" d="M26 4H6V2H26V4Z" fill="#2EC5CE"/>
<path fill-rule="evenodd" clip-rule="evenodd" d="M26 30H6V28H26V30Z" fill="#2EC5CE"/>
<path fill-rule="evenodd" clip-rule="evenodd" d="M28 26V6H30V26H28Z" fill="#2EC5CE"/>
<path fill-rule="evenodd" clip-rule="evenodd" d="M2 26L2 6H4L4 26H2Z" fill="#2EC5CE"/>
<path d="M13.6 10.2857H15.8V11.4286H18V8H7V11.4286H9.20001V10.2857H11.4V21.7143H9.20001V24H15.7989V21.7143H13.6V10.2857Z" fill="#8C30F5"/>
<path d="M16 14V17.3334H18.25V16.2223H19.375V21.7778H18.25V24H22.75V21.7778H21.625V16.2222H22.75V17.3333H25V14L16 14Z" fill="#D6B1FF"/>
</svg>
